<svg xmlns="http://www.w3.org/2000/svg" width="1200" height="630" viewBox="0 0 1200 630">
  <rect width="1200" height="630" fill="#fffaf4"/>
  <rect x="52" y="42" width="1096" height="546" rx="28" fill="#ffffff" stroke="#ded5ca" stroke-width="4"/>
  <rect x="104" y="104" width="430" height="422" rx="28" fill="#f7eee4" stroke="#0f766e" stroke-width="5"/>
  <g transform="translate(319 315)" fill="none">
    <circle r="150" stroke="#ded5ca" stroke-width="4"/>
    <circle r="103" stroke="#ded5ca" stroke-width="4"/>
    <path d="M0-150V150M-130-75L130 75M130-75L-130 75" stroke="#ded5ca" stroke-width="3"/>
    <polygon points="0,-105 90,-52 81,47 0,98 -72,42 -84,-49" fill="#0f766e" fill-opacity=".24" stroke="#0f766e" stroke-width="7"/>
    <g fill="#d45d4c">
      <circle cy="-105" r="9"/><circle cx="90" cy="-52" r="9"/><circle cx="81" cy="47" r="9"/>
      <circle cy="98" r="9"/><circle cx="-72" cy="42" r="9"/><circle cx="-84" cy="-49" r="9"/>
    </g>
  </g>
  <path d="M566 315h68" stroke="#b78a1f" stroke-width="8" stroke-linecap="round"/>
  <path d="M608 286l31 29-31 29" fill="none" stroke="#b78a1f" stroke-width="8" stroke-linecap="round" stroke-linejoin="round"/>
  <rect x="666" y="104" width="430" height="422" rx="28" fill="#fff2ef" stroke="#d45d4c" stroke-width="5"/>
  <g transform="translate(720 154)">
    <g fill="#ffffff" stroke="#d45d4c" stroke-width="4">
      <rect width="140" height="92" rx="18"/><rect x="164" width="140" height="92" rx="18"/>
      <rect y="116" width="140" height="92" rx="18"/><rect x="164" y="116" width="140" height="92" rx="18"/>
      <rect y="232" width="140" height="92" rx="18"/><rect x="164" y="232" width="140" height="92" rx="18"/>
    </g>
    <g fill="none" stroke-linecap="round" stroke-linejoin="round">
      <path d="M38 47l20 20 42-45" stroke="#0f766e" stroke-width="8"/>
      <circle cx="234" cy="46" r="24" stroke="#b78a1f" stroke-width="7"/>
      <path d="M50 145h40M50 179h40" stroke="#d45d4c" stroke-width="8"/>
      <path d="M214 148l40 40M254 148l-40 40" stroke="#665f57" stroke-width="8"/>
      <path d="M38 278h64M70 246v64" stroke="#0f766e" stroke-width="8"/>
      <path d="M206 278c16-30 40-30 56 0-16 30-40 30-56 0Z" stroke="#d45d4c" stroke-width="6"/>
    </g>
  </g>
</svg>
