<svg xmlns="http://www.w3.org/2000/svg" width="1200" height="630" viewBox="0 0 1200 630">
  <rect width="1200" height="630" fill="#fffaf4"/>
  <rect x="52" y="42" width="1096" height="546" rx="28" fill="#ffffff" stroke="#ded5ca" stroke-width="4"/>
  <g transform="translate(126 120)">
    <rect width="620" height="390" rx="24" fill="#f7eee4" stroke="#0f766e" stroke-width="6"/>
    <path d="M0 76h620" stroke="#0f766e" stroke-width="5"/>
    <circle cx="44" cy="38" r="11" fill="#d45d4c"/><circle cx="78" cy="38" r="11" fill="#b78a1f"/><circle cx="112" cy="38" r="11" fill="#0f766e"/>
    <g transform="translate(310 232)">
      <path d="M-56-18v-32a56 56 0 0 1 112 0v32" fill="none" stroke="#0f766e" stroke-width="13" stroke-linecap="round"/>
      <rect x="-82" y="-20" width="164" height="130" rx="24" fill="#0f766e"/>
      <circle cy="35" r="14" fill="#fffaf4"/>
      <path d="M0 48v25" stroke="#fffaf4" stroke-width="10" stroke-linecap="round"/>
    </g>
    <path d="M104 318c58 40 126 42 182 3M286 321l-8 38 40-17" fill="none" stroke="#b78a1f" stroke-width="7" stroke-linecap="round" stroke-linejoin="round"/>
  </g>
  <g transform="translate(820 146)">
    <circle cx="120" cy="120" r="118" fill="#e3f1ef" stroke="#0f766e" stroke-width="5"/>
    <path d="M59 128c0-33 27-60 60-60s60 27 60 60" fill="none" stroke="#0f766e" stroke-width="8"/>
    <circle cx="119" cy="65" r="30" fill="#0f766e"/>
    <path d="M73 176h92" stroke="#0f766e" stroke-width="8" stroke-linecap="round"/>
    <path d="M37 37l166 166" stroke="#d45d4c" stroke-width="12" stroke-linecap="round"/>
  </g>
  <g transform="translate(846 406)" fill="none" stroke="#665f57" stroke-width="6">
    <path d="M34 91h184c28 0 50-20 50-45 0-23-19-42-43-45-9-37-44-64-86-64-47 0-85 34-89 76C22 16 0 35 0 58c0 18 14 33 34 33Z" fill="#fffaf4"/>
    <path d="M11-4l246 112" stroke="#d45d4c" stroke-width="12" stroke-linecap="round"/>
  </g>
</svg>
