<svg xmlns="http://www.w3.org/2000/svg" width="1200" height="630" viewBox="0 0 1200 630">
  <rect width="1200" height="630" fill="#fffaf4"/>
  <rect x="52" y="42" width="1096" height="546" rx="28" fill="#ffffff" stroke="#ded5ca" stroke-width="4"/>
  <path d="M300 315H470M730 315H900" stroke="#b9aaa0" stroke-width="6" stroke-linecap="round" stroke-dasharray="12 14"/>
  <path d="M448 295l28 20-28 20M878 295l28 20-28 20" fill="none" stroke="#b9aaa0" stroke-width="6" stroke-linecap="round" stroke-linejoin="round"/>
  <g transform="translate(142 193)">
    <circle cx="108" cy="122" r="108" fill="#fff2ef" stroke="#d45d4c" stroke-width="5"/>
    <circle cx="75" cy="92" r="34" fill="#d45d4c" fill-opacity=".25"/>
    <circle cx="145" cy="92" r="34" fill="#b78a1f" fill-opacity=".28"/>
    <circle cx="110" cy="152" r="34" fill="#0f766e" fill-opacity=".28"/>
    <path d="M75 92l35 60 35-60Z" fill="none" stroke="#665f57" stroke-width="4"/>
  </g>
  <g transform="translate(478 137)">
    <rect width="244" height="356" rx="28" fill="#f7eee4" stroke="#0f766e" stroke-width="6"/>
    <g transform="translate(122 178)" fill="none" stroke-linejoin="round">
      <polygon points="0,-112 97,-56 97,56 0,112 -97,56 -97,-56" stroke="#ded5ca" stroke-width="4"/>
      <path d="M0-112V112M-97-56L97 56M97-56L-97 56" stroke="#ded5ca" stroke-width="3"/>
      <polygon points="0,-82 70,-41 62,36 0,78 -55,32 -72,-42" fill="#0f766e" fill-opacity=".24" stroke="#0f766e" stroke-width="6"/>
    </g>
  </g>
  <g transform="translate(900 208)">
    <path d="M0 43C0 19 19 0 43 0h155c24 0 43 19 43 43v100c0 24-19 43-43 43h-80l-50 43 12-43H43c-24 0-43-19-43-43Z" fill="#e3f1ef" stroke="#0f766e" stroke-width="5"/>
    <circle cx="76" cy="91" r="11" fill="#0f766e"/>
    <circle cx="121" cy="91" r="11" fill="#0f766e"/>
    <circle cx="166" cy="91" r="11" fill="#0f766e"/>
  </g>
</svg>
