<svg xmlns="http://www.w3.org/2000/svg" width="1200" height="630" viewBox="0 0 1200 630" role="img" aria-labelledby="title desc">
  <title id="title">Kink Test preview</title>
  <desc id="desc">A calm educational preview graphic for a private kink test.</desc>
  <rect width="1200" height="630" fill="#fffaf4"/>
  <rect x="90" y="80" width="1020" height="470" rx="8" fill="#ffffff" stroke="#ded5ca" stroke-width="3"/>
  <text x="140" y="170" fill="#26221f" font-family="Arial, sans-serif" font-size="68" font-weight="800">Kink Test</text>
  <text x="140" y="230" fill="#665f57" font-family="Arial, sans-serif" font-size="32">Private 24-question adult self-reflection quiz</text>
  <g transform="translate(750 315)">
    <polygon points="0,-130 112,-65 112,65 0,130 -112,65 -112,-65" fill="none" stroke="#ded5ca" stroke-width="4"/>
    <polygon points="0,-90 78,-45 78,45 0,90 -78,45 -78,-45" fill="none" stroke="#ded5ca" stroke-width="3"/>
    <polygon points="0,-98 70,-41 82,47 0,80 -58,33 -64,-37" fill="rgba(15,118,110,0.24)" stroke="#0f766e" stroke-width="6"/>
    <circle cx="0" cy="-98" r="8" fill="#d45d4c"/>
    <circle cx="70" cy="-41" r="8" fill="#d45d4c"/>
    <circle cx="82" cy="47" r="8" fill="#d45d4c"/>
    <circle cx="0" cy="80" r="8" fill="#d45d4c"/>
    <circle cx="-58" cy="33" r="8" fill="#d45d4c"/>
    <circle cx="-64" cy="-37" r="8" fill="#d45d4c"/>
  </g>
  <rect x="140" y="330" width="360" height="56" rx="8" fill="#0f766e"/>
  <text x="176" y="367" fill="#ffffff" font-family="Arial, sans-serif" font-size="23" font-weight="700">Answers stay in your browser</text>
  <text x="140" y="455" fill="#665f57" font-family="Arial, sans-serif" font-size="26">Consent-first. Non-graphic. Built for adults 18+.</text>
</svg>
